<?xml version="1.0" standalone="no"?>
<!DOCTYPE svg PUBLIC "-//W3C//DTD SVG 20010904//EN"
 "http://www.w3.org/TR/2001/REC-SVG-20010904/DTD/svg10.dtd">
<svg version="1.0" xmlns="http://www.w3.org/2000/svg"
 width="280.000000pt" height="280.000000pt" viewBox="0 0 280.000000 280.000000"
 preserveAspectRatio="xMidYMid meet">
<metadata>
Created by potrace 1.10, written by Peter Selinger 2001-2011
</metadata>
<g transform="translate(0.000000,280.000000) scale(0.100000,-0.100000)"
fill="#000000" stroke="none">
<path d="M1275 2780 c-289 -28 -511 -119 -755 -309 l-85 -66 435 -6 c411 -5
439 -6 514 -27 251 -72 419 -236 488 -477 18 -65 22 -105 23 -215 0 -160 -11
-211 -71 -338 -53 -109 -143 -209 -237 -262 l-57 -32 19 -32 c10 -17 105 -186
210 -375 106 -189 199 -354 208 -367 l16 -24 -258 2 -258 3 -191 352 -191 353
-212 0 -213 0 0 -356 c0 -312 -2 -355 -15 -350 -8 3 -15 2 -15 -2 0 -7 124
-80 199 -117 89 -45 279 -96 411 -111 105 -11 293 -6 398 12 426 72 808 355
1002 744 166 331 190 741 64 1090 -165 460 -585 814 -1060 894 -116 19 -269
26 -369 16z m300 -41 c596 -78 1072 -545 1160 -1139 83 -557 -182 -1093 -680
-1379 -275 -158 -608 -208 -934 -141 -146 30 -321 98 -398 156 l-32 24 0 298
c-1 163 3 311 7 327 l8 30 176 3 c133 2 178 -1 186 -10 6 -7 87 -155 182 -328
94 -173 180 -325 192 -337 21 -23 24 -23 273 -23 236 0 253 1 269 19 12 14 16
27 10 43 -5 18 -208 388 -373 679 -17 31 -31 60 -31 66 0 5 25 27 56 48 126
87 236 257 270 415 23 110 15 339 -16 435 -82 258 -254 415 -532 486 -76 20
-116 22 -451 26 -422 6 -403 -1 -256 93 200 128 398 195 645 218 89 8 154 6
269 -9z"/>
<path d="M153 2006 c-96 -199 -135 -374 -134 -606 0 -233 40 -410 138 -615
l38 -80 3 348 c1 191 1 503 0 695 l-3 347 -42 -89z m7 -608 c0 -330 -3 -499
-10 -492 -16 16 -57 143 -75 231 -37 185 -34 387 9 565 23 98 59 198 71 198 3
0 5 -226 5 -502z"/>
<path d="M660 1680 l0 -290 263 0 c147 0 278 5 299 10 63 18 129 70 162 130
29 51 31 62 31 150 0 111 -16 151 -88 217 -72 67 -108 73 -409 73 l-258 0 0
-290z m585 226 c99 -45 139 -120 133 -241 -6 -116 -43 -174 -138 -218 -40 -18
-69 -21 -257 -25 -117 -2 -227 -2 -246 2 l-34 6 -7 114 c-4 62 -4 175 0 250
l7 136 246 0 c237 0 248 -1 296 -24z"/>
</g>
</svg>
